<?xml version="1.0" encoding="utf-8"?>
<!-- Generator: Adobe Illustrator 16.0.4, SVG Export Plug-In . SVG Version: 6.00 Build 0)  -->
<!DOCTYPE svg PUBLIC "-//W3C//DTD SVG 1.1//EN" "http://www.w3.org/Graphics/SVG/1.1/DTD/svg11.dtd">
<svg version="1.1" id="Layer_1" xmlns="http://www.w3.org/2000/svg" xmlns:xlink="http://www.w3.org/1999/xlink" x="0px" y="0px"
	 width="160px" height="40px" viewBox="0 0 160 40" enable-background="new 0 0 160 40" xml:space="preserve">
<linearGradient id="SVGID_1_" gradientUnits="userSpaceOnUse" x1="81.1445" y1="7.1123" x2="80.819" y2="32.8343">
	<stop  offset="0" style="stop-color:#B1D240"/>
	<stop  offset="1" style="stop-color:#85B740"/>
</linearGradient>
<path fill="url(#SVGID_1_)" d="M81.2,8.6h-2.2v3.4h4.3v-1.3c0-0.6-0.2-1.1-0.6-1.5C82.2,8.9,81.7,8.6,81.2,8.6z"/>
<path fill="#FFFFFF" d="M69.6,13.1c-1.1,0-2,0.2-2.7,0.6c-0.9,0.5-1.5,1.1-2,1.9v-4.9c0-0.6-0.2-1.1-0.6-1.5
	c-0.4-0.4-0.9-0.6-1.5-0.6h-2.1v14.2c0,2.9,0.8,4.9,2.5,5.9c1.7,1,3.5,1.5,5.5,1.5c1,0,2.1-0.2,3.1-0.5c1.1-0.3,1.9-0.9,2.5-1.7
	c1.2-1.6,1.9-3.7,1.9-6.2c0-2.6-0.6-4.6-1.9-6.2C73.1,13.9,71.6,13.1,69.6,13.1z M71,25.4c-0.6,0.9-1.5,1.3-2.7,1.3
	c-1.1,0-2-0.4-2.6-1.3c-0.6-0.8-0.9-2-0.9-3.8c0-1.5,0.3-2.7,0.9-3.5c0.6-0.8,1.5-1.2,2.7-1.2c1.1,0,1.9,0.4,2.5,1.3
	c0.6,0.8,0.9,2,0.9,3.5C72,23.2,71.7,24.5,71,25.4z"/>
<path fill="#FFFFFF" d="M81.2,13.5h-2.2v16.5h4.3V15.6c0-0.6-0.2-1.1-0.6-1.5C82.2,13.7,81.7,13.5,81.2,13.5z"/>
<path fill="#FFFFFF" d="M98,8.6h-2.1v7.1c-0.5-0.8-1.2-1.4-2-1.9c-0.8-0.4-1.7-0.6-2.7-0.6c-1.9,0-3.5,0.8-4.8,2.4
	c-1.2,1.6-1.8,3.6-1.8,6.2c0,2.6,0.6,4.7,1.8,6.2c0.6,0.8,1.4,1.4,2.5,1.7c1,0.4,2.1,0.5,3.2,0.5c2,0,3.8-0.5,5.5-1.5
	c1.7-1,2.5-3,2.5-5.9V10.7c0-0.5-0.2-1-0.6-1.5C99.1,8.8,98.6,8.6,98,8.6z M95.1,25.4c-0.6,0.9-1.5,1.3-2.6,1.3
	c-1.2,0-2-0.4-2.7-1.3s-0.9-2.1-0.9-3.8c0-1.5,0.3-2.6,0.9-3.5c0.6-0.9,1.5-1.3,2.5-1.3c1.1,0,2,0.4,2.7,1.2c0.6,0.9,0.9,2,0.9,3.5
	C95.9,23.2,95.6,24.5,95.1,25.4z"/>
<path fill="#FFFFFF" d="M115,14.7c-1.7-1.1-3.5-1.6-5.5-1.6c-2.6,0-4.5,0.8-5.7,2.4c-1.2,1.6-1.8,3.7-1.8,6.2c0,2.2,0.4,3.9,1.3,5.3
	c0.9,1.3,1.9,2.3,3.2,2.8c1.2,0.5,2.5,0.6,3.7,0.3c1.3-0.3,2.3-1,3-2.2v1.1c-0.1,1.3-0.4,2.3-1,3c-0.6,0.7-1.2,1.1-1.9,1.2
	c-0.7,0.1-1.4,0.1-2-0.2c-0.7-0.3-1.2-0.8-1.5-1.3h-4.5c0.9,3.5,3.3,5.3,7.1,5.3c2,0,3.8-0.5,5.5-1.6c1.7-1.1,2.5-3,2.5-5.9v-8.7
	C117.5,17.8,116.7,15.8,115,14.7z M113.2,23.3c-0.2,1-0.4,1.7-0.8,2.1c-0.8,1.1-2,1.5-3.6,1.1c-1.7-0.3-2.5-1.9-2.5-4.7
	c0-1.3,0.2-2.5,0.7-3.5c0.5-1,1.4-1.5,2.8-1.5c1,0,1.8,0.4,2.4,1.1c0.5,0.7,0.9,1.6,1,2.5C113.4,21.4,113.4,22.3,113.2,23.3z"/>
<path fill="#FFFFFF" d="M126.9,13.1c-2.3,0-4.2,0.8-5.5,2.3c-1.3,1.5-1.9,3.5-1.9,6.2c0,2.8,0.7,4.9,2,6.4c1.3,1.5,3.2,2.3,5.5,2.3
	c1.9,0,3.5-0.5,4.8-1.4c1.3-0.9,2.1-2.2,2.6-4h-3.1c-0.5,0-0.9,0.1-1.1,0.3c-0.3,0.2-0.4,0.4-0.5,0.5c-0.1,0.1-0.2,0.2-0.3,0.3
	c-0.1,0.1-0.2,0.2-0.3,0.2c-0.5,0.3-1.1,0.4-1.8,0.4c-1.1,0-1.9-0.3-2.4-1c-0.6-0.6-0.9-1.6-0.9-2.8h10.7c0-0.1,0.1-0.2,0.1-0.4
	c0,0,0-0.1,0-0.2c0-0.1,0-0.3,0-0.4c0-2.7-0.7-4.8-2-6.4C131.3,13.8,129.4,13.1,126.9,13.1z M123.9,20c0-1.1,0.3-1.9,0.9-2.5
	c0.6-0.6,1.3-0.9,2.2-0.9c1,0,1.8,0.3,2.3,0.9c0.5,0.5,0.8,1.4,0.9,2.5H123.9z"/>
<path fill="#FFFFFF" d="M139.3,8.6h-2.2v21.3h4.3V10.7c0-0.6-0.2-1.1-0.6-1.5C140.4,8.8,139.9,8.6,139.3,8.6z"/>
<path fill="#FFFFFF" d="M156.8,13.5c-1.1,0-1.7,0.5-2,1.5l-2.9,10.1l-3.3-11.6h-4.8l5.8,16.4c0.3,0.9,0.2,1.5-0.3,1.9
	c-0.5,0.4-1.1,0.6-1.9,0.6h-1.2v3.4c0.1,0,0.3,0,0.5,0c0.2,0,0.3,0.1,0.5,0.1c0.1,0,0.3,0,0.4,0c0.2,0,0.3,0,0.4,0
	c1.7,0,2.9-0.2,3.6-0.7c0.7-0.6,1.4-1.5,1.9-2.9l6.3-18.7H156.8z"/>
<linearGradient id="SVGID_2_" gradientUnits="userSpaceOnUse" x1="12.7686" y1="6.2461" x2="12.443" y2="31.9749">
	<stop  offset="0" style="stop-color:#B1D240"/>
	<stop  offset="1" style="stop-color:#85B740"/>
</linearGradient>
<rect x="10" y="17.7" fill="url(#SVGID_2_)" width="5.1" height="11.4"/>
<linearGradient id="SVGID_3_" gradientUnits="userSpaceOnUse" x1="19.5176" y1="6.3325" x2="19.192" y2="32.0604">
	<stop  offset="0" style="stop-color:#B1D240"/>
	<stop  offset="1" style="stop-color:#85B740"/>
</linearGradient>
<rect x="16.8" y="14.8" fill="url(#SVGID_3_)" width="5.1" height="14.2"/>
<linearGradient id="SVGID_4_" gradientUnits="userSpaceOnUse" x1="26.251" y1="6.4175" x2="25.9254" y2="32.1462">
	<stop  offset="0" style="stop-color:#B1D240"/>
	<stop  offset="1" style="stop-color:#85B740"/>
</linearGradient>
<rect x="23.6" y="9.4" fill="url(#SVGID_4_)" width="5.1" height="19.6"/>
<linearGradient id="SVGID_5_" gradientUnits="userSpaceOnUse" x1="33.0117" y1="6.5029" x2="32.6861" y2="32.2313">
	<stop  offset="0" style="stop-color:#B1D240"/>
	<stop  offset="1" style="stop-color:#85B740"/>
</linearGradient>
<rect x="30.3" y="8.4" fill="url(#SVGID_5_)" width="5.1" height="20.7"/>
<linearGradient id="SVGID_6_" gradientUnits="userSpaceOnUse" x1="39.8154" y1="6.5884" x2="39.4898" y2="32.3174">
	<stop  offset="0" style="stop-color:#B1D240"/>
	<stop  offset="1" style="stop-color:#85B740"/>
</linearGradient>
<rect x="37.1" y="14.2" fill="url(#SVGID_6_)" width="5.1" height="14.9"/>
<path fill="#FFFFFF" d="M58.1,30.3v-2.7h-5.2v-2c-2.8,0-5.2,1.9-5.9,4.5h-15l0,0L9.2,30l0,0c-0.2,0-1.5-0.3-2.7-1.1
	c-0.8-0.5-1.5-1.2-1.9-2c-0.6-1-0.9-2.2-1-3.5c0-1,0.1-1.9,0.4-2.7c0.3-0.7,0.7-1.4,1.3-2c1.5-1.6,3.6-2.1,4.9-2.1
	c0.6,0,1,0.1,1.4,0.3l0.3,0.1l0.1-0.3c0,0,0.5-1.1,1.6-2.2c0.7-0.6,1.4-1.1,2.2-1.5c1-0.4,2.2-0.7,3.4-0.7c0.3,0,0.5,0,0.8,0l0.2,0
	l0.1-0.2c0,0,0,0,0,0l0,0l0,0c0.3-1,0.8-1.9,1.4-2.7c0.6-0.8,1.3-1.6,2.2-2.2c1.7-1.3,3.8-1.9,5.9-1.9c2.2,0,4.3,0.7,6,2
	c0.8,0.6,1.6,1.4,2.2,2.3c0.6,0.9,1.1,1.8,1.4,2.9l0.1,0.2l0.2,0c0.1,0,0.2,0,0.3,0c0.9,0,3.2,0.1,5.3,1.3c2.6,1.4,4,3.9,4.1,7.4
	c0.1,2.1-0.4,3.9-1.4,5.3c1.2-1.2,2.7-1.9,4.4-2.1c0.2-1,0.3-2.2,0.3-3.4c-0.1-2.2-0.6-4.2-1.6-5.9c-1-1.8-2.4-3.2-4.2-4.2
	c-1.8-1-3.7-1.4-5.2-1.6c-0.3-0.6-0.6-1.2-1-1.8c-0.8-1.1-1.8-2.2-2.9-3c-2.3-1.8-5.1-2.7-8-2.7c-2.8,0-5.5,0.9-7.8,2.6
	c-1.1,0.8-2.1,1.8-2.9,2.9c-0.4,0.5-0.7,1.1-1,1.7c-1.2,0.1-2.4,0.4-3.5,0.9c-1.2,0.5-2.2,1.2-3.2,2.1c-0.4,0.4-0.7,0.7-1.1,1.2
	c0,0,0,0-0.1,0c-2,0-5,0.8-7.3,3.2c-0.9,0.9-1.5,1.9-1.9,3.1c-0.5,1.3-0.7,2.6-0.6,4c0.1,1.9,0.6,3.6,1.5,5c0.7,1.2,1.7,2.2,2.9,3
	c1.7,1.1,3.3,1.5,3.9,1.6l0.3,0.1l29.4,0.1c0.2,0,0.4,0,0.6,0c0.1,0,0.1,0,0.2,0c0,0,0,0,0,0h7.8c0.7,2.6,3.1,4.6,6,4.6v-2h5.2v-2.7
	h-5.2v-3.1H58.1z"/>
<linearGradient id="SVGID_7_" gradientUnits="userSpaceOnUse" x1="80.6177" y1="47.1475" x2="81.3769" y2="-10.3661">
	<stop  offset="0" style="stop-color:#FFFFFF"/>
	<stop  offset="4.940003e-02" style="stop-color:#FFFFFF;stop-opacity:0.9506"/>
	<stop  offset="1" style="stop-color:#FFFFFF;stop-opacity:0"/>
</linearGradient>
<path fill="url(#SVGID_7_)" d="M81.2,8.9h-2v2.9H83v-1c0-0.5-0.2-0.9-0.5-1.3C82.1,9.1,81.7,8.9,81.2,8.9z"/>
<linearGradient id="SVGID_8_" gradientUnits="userSpaceOnUse" x1="12.2231" y1="46.2402" x2="12.9823" y2="-11.2667">
	<stop  offset="0" style="stop-color:#FFFFFF"/>
	<stop  offset="4.940003e-02" style="stop-color:#FFFFFF;stop-opacity:0.9506"/>
	<stop  offset="1" style="stop-color:#FFFFFF;stop-opacity:0"/>
</linearGradient>
<path fill="url(#SVGID_8_)" d="M10.3,25.5c1.4-0.2,2.9-0.5,4.5-0.7V18h-4.5V25.5z"/>
<linearGradient id="SVGID_9_" gradientUnits="userSpaceOnUse" x1="18.9653" y1="46.3271" x2="19.7244" y2="-11.176">
	<stop  offset="0" style="stop-color:#FFFFFF"/>
	<stop  offset="4.940003e-02" style="stop-color:#FFFFFF;stop-opacity:0.9506"/>
	<stop  offset="1" style="stop-color:#FFFFFF;stop-opacity:0"/>
</linearGradient>
<path fill="url(#SVGID_9_)" d="M17.1,24.5c1.5-0.2,3-0.4,4.5-0.6v-8.8h-4.5V24.5z"/>
<linearGradient id="SVGID_10_" gradientUnits="userSpaceOnUse" x1="25.6919" y1="46.416" x2="26.451" y2="-11.0871">
	<stop  offset="0" style="stop-color:#FFFFFF"/>
	<stop  offset="4.940003e-02" style="stop-color:#FFFFFF;stop-opacity:0.9506"/>
	<stop  offset="1" style="stop-color:#FFFFFF;stop-opacity:0"/>
</linearGradient>
<path fill="url(#SVGID_10_)" d="M23.8,23.6c1.5-0.2,3-0.3,4.5-0.5V9.7h-4.5V23.6z"/>
<linearGradient id="SVGID_11_" gradientUnits="userSpaceOnUse" x1="32.4487" y1="46.5059" x2="33.2078" y2="-10.9988">
	<stop  offset="0" style="stop-color:#FFFFFF"/>
	<stop  offset="4.940003e-02" style="stop-color:#FFFFFF;stop-opacity:0.9506"/>
	<stop  offset="1" style="stop-color:#FFFFFF;stop-opacity:0"/>
</linearGradient>
<path fill="url(#SVGID_11_)" d="M30.6,22.9c1.5-0.1,3-0.3,4.5-0.4V8.6h-4.5V22.9z"/>
<linearGradient id="SVGID_12_" gradientUnits="userSpaceOnUse" x1="39.2505" y1="46.5928" x2="40.0095" y2="-10.9058">
	<stop  offset="0" style="stop-color:#FFFFFF"/>
	<stop  offset="4.940003e-02" style="stop-color:#FFFFFF;stop-opacity:0.9506"/>
	<stop  offset="1" style="stop-color:#FFFFFF;stop-opacity:0"/>
</linearGradient>
<path fill="url(#SVGID_12_)" d="M37.4,22.2c1.5-0.1,3-0.2,4.5-0.4v-7.4h-4.5V22.2z"/>
<linearGradient id="SVGID_13_" gradientUnits="userSpaceOnUse" x1="26.0581" y1="46.4209" x2="26.8172" y2="-11.0815">
	<stop  offset="0" style="stop-color:#FFFFFF"/>
	<stop  offset="4.940003e-02" style="stop-color:#FFFFFF;stop-opacity:0.9506"/>
	<stop  offset="1" style="stop-color:#FFFFFF;stop-opacity:0"/>
</linearGradient>
<path fill="url(#SVGID_13_)" d="M50.7,15.4c-1-1.7-2.3-3.1-4.1-4.1c-1.8-1-3.8-1.4-5.1-1.6l-0.1,0l-0.1-0.1c-0.3-0.6-0.6-1.2-1-1.7
	c-0.8-1.1-1.7-2.1-2.8-3c-2.3-1.7-5-2.6-7.8-2.6c-2.8,0-5.4,0.9-7.7,2.5c-1.1,0.8-2,1.7-2.8,2.8c-0.4,0.5-0.7,1.1-1,1.6l-0.1,0.1
	l-0.1,0c-1.2,0.1-2.4,0.4-3.4,0.9c-1.1,0.5-2.2,1.2-3.1,2.1c-0.4,0.3-0.7,0.7-1,1.1l-0.1,0.1h-0.2c-1.9,0-4.9,0.8-7.1,3.1
	c-0.8,0.9-1.5,1.9-1.9,3c-0.5,1.2-0.7,2.5-0.6,3.9c0.1,1.3,0.3,2.5,0.8,3.6c0.9-0.2,1.8-0.3,2.8-0.5c-0.5-0.9-0.7-2-0.8-3.2
	c-0.1-1,0.1-2,0.4-2.8C4,19.8,4.4,19.1,5,18.5c1.6-1.6,3.7-2.2,5.1-2.2c0.6,0,1.1,0.1,1.5,0.3l0,0c0-0.1,0.5-1.2,1.7-2.3
	c0.7-0.7,1.5-1.2,2.3-1.5c1.1-0.5,2.2-0.7,3.5-0.7c0.3,0,0.5,0,0.8,0l0,0l0,0l0,0c0.3-1,0.8-2,1.4-2.8C22,8.3,22.7,7.6,23.6,7
	c1.8-1.3,3.9-2,6-2c2.3,0,4.4,0.7,6.2,2.1c0.9,0.7,1.6,1.4,2.2,2.3c0.6,0.9,1.1,1.9,1.4,2.9l0,0l0,0c0.1,0,0.2,0,0.3,0
	c0.9,0,3.3,0.1,5.4,1.3c2.7,1.5,4.1,4.1,4.2,7.7c0,0,0,0,0,0.1c0.9,0,1.8-0.1,2.7-0.1c0,0,0,0,0,0C52.1,19,51.6,17.1,50.7,15.4z"/>
<linearGradient id="SVGID_14_" gradientUnits="userSpaceOnUse" x1="68.0386" y1="46.9785" x2="68.7977" y2="-10.5304">
	<stop  offset="0" style="stop-color:#FFFFFF"/>
	<stop  offset="4.940003e-02" style="stop-color:#FFFFFF;stop-opacity:0.9506"/>
	<stop  offset="1" style="stop-color:#FFFFFF;stop-opacity:0"/>
</linearGradient>
<path fill="url(#SVGID_14_)" d="M69.6,13.4c-1,0-1.9,0.2-2.6,0.6c-0.8,0.5-1.5,1.1-1.9,1.8l-0.5,0.9v-5.9c0-0.5-0.2-0.9-0.5-1.3
	c-0.4-0.4-0.8-0.5-1.3-0.5H61v12.1c1.2,0,2.5-0.1,3.7-0.1c0.1-1.2,0.4-2.2,1-3c0.7-0.9,1.6-1.3,2.9-1.3c1.2,0,2.1,0.5,2.8,1.4
	c0.5,0.7,0.8,1.7,0.9,2.8c1.2,0,2.5,0,3.7,0c-0.1-2-0.7-3.8-1.8-5.1C73,14.1,71.5,13.4,69.6,13.4z"/>
<path fill="#FFFFFF" d="M81.2,13.7h-2v7.1c1.3,0,2.5,0,3.8,0.1v-5.3c0-0.5-0.2-0.9-0.5-1.3C82.1,13.9,81.7,13.7,81.2,13.7z"/>
<path fill="#FFFFFF" d="M98,8.9h-1.8v7.7l-0.5-0.8c-0.5-0.7-1.1-1.4-1.9-1.8c-0.7-0.4-1.6-0.6-2.6-0.6c-1.9,0-3.4,0.8-4.6,2.3
	c-1,1.3-1.6,3.1-1.7,5.3c1.2,0,2.4,0.1,3.7,0.1c0.1-1.3,0.4-2.3,1-3.1c0.7-0.9,1.6-1.4,2.8-1.4c1.2,0,2.2,0.4,2.9,1.3
	c0.6,0.9,0.9,2,1,3.5c1.2,0.1,2.4,0.1,3.7,0.2V10.7c0-0.5-0.2-0.9-0.5-1.3C99,9,98.5,8.9,98,8.9z"/>
<path fill="#FFFFFF" d="M114.9,14.9c-1.6-1-3.4-1.6-5.4-1.6c-2.5,0-4.3,0.8-5.4,2.3c-1.1,1.5-1.7,3.6-1.7,6.1c0,0,0,0,0,0
	c1.2,0.1,2.4,0.2,3.7,0.2c0,0,0-0.1,0-0.1c0-1.4,0.3-2.6,0.8-3.6c0.5-1.1,1.6-1.7,3.1-1.7c1.1,0,2,0.4,2.6,1.2
	c0.6,0.8,0.9,1.7,1.1,2.7c0.1,0.7,0.1,1.5,0.1,2.2c1.2,0.1,2.5,0.2,3.7,0.3v-2.2C117.3,17.9,116.5,16,114.9,14.9z"/>
<linearGradient id="SVGID_15_" gradientUnits="userSpaceOnUse" x1="126.7383" y1="47.7471" x2="127.4973" y2="-9.7502">
	<stop  offset="0" style="stop-color:#FFFFFF"/>
	<stop  offset="4.940003e-02" style="stop-color:#FFFFFF;stop-opacity:0.9506"/>
	<stop  offset="1" style="stop-color:#FFFFFF;stop-opacity:0"/>
</linearGradient>
<path fill="url(#SVGID_15_)" d="M126.9,13.4c-2.3,0-4,0.7-5.3,2.2c-1.2,1.4-1.9,3.5-1.9,6c0,0.5,0,1.1,0.1,1.6
	c1.3,0.1,2.5,0.3,3.8,0.4c0-0.2,0-0.5-0.1-0.7l0-0.3h10.8c0,0,0-0.1,0-0.2v-0.7c0-2.6-0.6-4.7-1.9-6.2
	C131.2,14.1,129.3,13.4,126.9,13.4z M123.6,20.3l0-0.3c0-1.1,0.4-2,1-2.7c0.6-0.6,1.4-0.9,2.4-0.9c1.1,0,1.9,0.3,2.5,1
	c0.5,0.6,0.8,1.5,0.9,2.6l0,0.3H123.6z"/>
<path fill="#FFFFFF" d="M139.3,8.9h-2v16.3c1.3,0.2,2.5,0.3,3.8,0.5v-15c0-0.5-0.2-0.9-0.5-1.3C140.3,9.1,139.8,8.9,139.3,8.9z"/>
<path fill="#FFFFFF" d="M156.8,13.7c-1,0-1.5,0.4-1.7,1.3l-3.2,11l-3.5-12.3h-4.2l4.6,13.1c1.9,0.3,3.9,0.6,5.8,1l4.7-14.1H156.8z"
	/>
</svg>
